<mxfile host="app.diagrams.net" modified="2023-11-27T16:30:11.824Z" agent="Mozilla/5.0 (X11; Linux x86_64; rv:109.0) Gecko/20100101 Firefox/115.0" etag="maEJouBe8pstXVLvLLdB" version="22.1.4" type="device">
  <diagram name="Page-1" id="bsM0i1HVt8c5o4kiiX4V">
    <mxGraphModel dx="1434" dy="809" grid="1" gridSize="10" guides="1" tooltips="1" connect="1" arrows="1" fold="1" page="1" pageScale="1" pageWidth="850" pageHeight="1100" math="0" shadow="0">
      <root>
        <mxCell id="0" />
        <mxCell id="1" parent="0" />
        <mxCell id="tq-FMmAYsh0oe-fVfTdL-3" value="" style="edgeStyle=orthogonalEdgeStyle;rounded=0;orthogonalLoop=1;jettySize=auto;html=1;" edge="1" parent="1" source="tq-FMmAYsh0oe-fVfTdL-1" target="tq-FMmAYsh0oe-fVfTdL-2">
          <mxGeometry relative="1" as="geometry" />
        </mxCell>
        <mxCell id="tq-FMmAYsh0oe-fVfTdL-1" value="initClock()" style="ellipse;whiteSpace=wrap;html=1;strokeWidth=2;" vertex="1" parent="1">
          <mxGeometry x="350" y="100" width="100" height="40" as="geometry" />
        </mxCell>
        <mxCell id="tq-FMmAYsh0oe-fVfTdL-5" value="" style="edgeStyle=orthogonalEdgeStyle;rounded=0;orthogonalLoop=1;jettySize=auto;html=1;" edge="1" parent="1" source="tq-FMmAYsh0oe-fVfTdL-2" target="tq-FMmAYsh0oe-fVfTdL-4">
          <mxGeometry relative="1" as="geometry" />
        </mxCell>
        <mxCell id="tq-FMmAYsh0oe-fVfTdL-2" value="&lt;b&gt;Setze Anfangszeit&lt;/b&gt;&lt;br&gt;&lt;div&gt;time.hour == 11;&lt;/div&gt;&lt;div&gt;time.minute = 59;&lt;/div&gt;&lt;div&gt;time.secound = 30;&lt;/div&gt;&lt;div&gt;am_or_pm = PM;&lt;br&gt;&lt;/div&gt;" style="whiteSpace=wrap;html=1;strokeWidth=2;" vertex="1" parent="1">
          <mxGeometry x="320" y="170" width="160" height="90" as="geometry" />
        </mxCell>
        <mxCell id="tq-FMmAYsh0oe-fVfTdL-4" value="&lt;div&gt;&lt;b&gt;Initialisiere LED&lt;/b&gt;&lt;/div&gt;&lt;div&gt;initLED();&lt;/div&gt;" style="whiteSpace=wrap;html=1;strokeWidth=2;" vertex="1" parent="1">
          <mxGeometry x="320" y="290" width="160" height="40" as="geometry" />
        </mxCell>
      </root>
    </mxGraphModel>
  </diagram>
</mxfile>
